# Blender v2.79 (sub 0) OBJ File: 'cube.obj'
# www.blender.org
v 1.000000 -0.800000 -0.800000
v 0.800000 -1.000000 -0.800000
v 0.800000 -0.800000 -1.000000
v 0.973281 -0.899869 -0.800000
v 0.973281 -0.800000 -0.899869
v 0.947326 -0.895642 -0.895642
v 0.800000 -0.973281 -0.899869
v 0.899869 -0.973281 -0.800000
v 0.895642 -0.947326 -0.895642
v 0.899869 -0.800000 -0.973281
v 0.800000 -0.899869 -0.973281
v 0.895642 -0.895642 -0.947326
v 1.000000 -0.800000 0.800000
v 0.800000 -0.800000 1.000000
v 0.800000 -1.000000 0.800000
v 0.973281 -0.800000 0.899869
v 0.973281 -0.899869 0.800000
v 0.947326 -0.895642 0.895642
v 0.800000 -0.899869 0.973281
v 0.899869 -0.800000 0.973281
v 0.895642 -0.895642 0.947327
v 0.899869 -0.973281 0.800000
v 0.800000 -0.973281 0.899869
v 0.895642 -0.947326 0.895642
v -0.800000 -0.800000 1.000000
v -1.000000 -0.800000 0.800000
v -0.800000 -1.000000 0.800000
v -0.899869 -0.800000 0.973281
v -0.800000 -0.899869 0.973281
v -0.895642 -0.895642 0.947326
v -0.973281 -0.899869 0.800000
v -0.973281 -0.800000 0.899869
v -0.947327 -0.895642 0.895642
v -0.800000 -0.973281 0.899869
v -0.899869 -0.973281 0.800000
v -0.895642 -0.947326 0.895642
v -0.800000 -0.800000 -1.000000
v -0.800000 -1.000000 -0.800000
v -1.000000 -0.800000 -0.800000
v -0.800000 -0.899869 -0.973281
v -0.899869 -0.800000 -0.973281
v -0.895642 -0.895642 -0.947327
v -0.899869 -0.973281 -0.800000
v -0.800000 -0.973281 -0.899869
v -0.895642 -0.947326 -0.895643
v -0.973280 -0.800000 -0.899869
v -0.973280 -0.899869 -0.800000
v -0.947326 -0.895642 -0.895643
v 0.800000 0.800000 -1.000000
v 0.800000 1.000000 -0.800000
v 1.000000 0.800000 -0.800000
v 0.800001 0.899869 -0.973280
v 0.899869 0.800000 -0.973280
v 0.895643 0.895642 -0.947326
v 0.899869 0.973281 -0.800000
v 0.800000 0.973281 -0.899868
v 0.895643 0.947326 -0.895642
v 0.973281 0.800000 -0.899868
v 0.973281 0.899869 -0.800000
v 0.947327 0.895642 -0.895642
v 0.799999 0.800000 1.000000
v 1.000000 0.800000 0.800001
v 0.799999 1.000000 0.800001
v 0.899868 0.800000 0.973281
v 0.799999 0.899869 0.973281
v 0.895642 0.895642 0.947327
v 0.973280 0.899869 0.800001
v 0.973280 0.800000 0.899869
v 0.947326 0.895642 0.895643
v 0.799999 0.973281 0.899869
v 0.899868 0.973281 0.800001
v 0.895642 0.947326 0.895643
v -1.000000 0.800000 0.800000
v -0.800000 0.800000 1.000000
v -0.800000 1.000000 0.800000
v -0.973281 0.800000 0.899868
v -0.973281 0.899869 0.800000
v -0.947327 0.895642 0.895642
v -0.800000 0.899869 0.973281
v -0.899869 0.800000 0.973280
v -0.895643 0.895642 0.947326
v -0.899869 0.973281 0.800000
v -0.800000 0.973281 0.899869
v -0.895643 0.947326 0.895642
v -1.000000 0.800000 -0.800000
v -0.800000 1.000000 -0.800000
v -0.800000 0.800000 -1.000000
v -0.973281 0.899869 -0.800000
v -0.973281 0.800000 -0.899869
v -0.947326 0.895642 -0.895642
v -0.800000 0.973281 -0.899869
v -0.899869 0.973281 -0.800000
v -0.895642 0.947326 -0.895642
v -0.899869 0.800000 -0.973281
v -0.800000 0.899869 -0.973281
v -0.895642 0.895642 -0.947326
vn 0.1296 0.1296 -0.9831
vn 0.1296 -0.1296 -0.9831
vn -0.1296 -0.1296 -0.9831
vn -0.1296 0.1296 -0.9831
vn 0.1296 -0.9831 -0.1296
vn 0.1296 -0.9831 0.1296
vn -0.1296 -0.9831 0.1296
vn -0.1296 -0.9831 -0.1296
vn -0.9831 -0.1296 0.1296
vn -0.9831 0.1296 0.1296
vn -0.9831 0.1296 -0.1296
vn -0.9830 -0.1296 -0.1296
vn 0.1296 0.9831 -0.1296
vn -0.1296 0.9831 -0.1296
vn -0.1296 0.9831 0.1296
vn 0.1296 0.9831 0.1296
vn 0.1296 -0.1296 0.9831
vn 0.1296 0.1296 0.9831
vn -0.1296 0.1296 0.9831
vn -0.1296 -0.1296 0.9831
vn 0.9831 -0.1296 -0.1296
vn 0.8623 -0.4915 -0.1216
vn 0.7744 -0.4473 -0.4473
vn 0.8623 -0.1216 -0.4915
vn 0.4915 -0.8623 -0.1216
vn 0.4473 -0.7744 -0.4473
vn 0.1216 -0.8623 -0.4915
vn 0.1216 -0.4915 -0.8623
vn 0.4473 -0.4473 -0.7744
vn 0.4915 -0.1216 -0.8623
vn 0.9831 -0.1296 0.1296
vn 0.8623 -0.1216 0.4915
vn 0.7744 -0.4473 0.4473
vn 0.8623 -0.4915 0.1216
vn 0.4915 -0.1216 0.8623
vn 0.4473 -0.4473 0.7744
vn 0.1216 -0.4915 0.8623
vn 0.1216 -0.8623 0.4915
vn 0.4473 -0.7744 0.4473
vn 0.4915 -0.8623 0.1216
vn -0.4915 -0.1216 0.8623
vn -0.4473 -0.4473 0.7744
vn -0.1216 -0.4915 0.8623
vn -0.8623 -0.1216 0.4915
vn -0.7744 -0.4473 0.4473
vn -0.8623 -0.4915 0.1216
vn -0.4915 -0.8623 0.1216
vn -0.4473 -0.7744 0.4473
vn -0.1216 -0.8623 0.4915
vn -0.1216 -0.4915 -0.8623
vn -0.4473 -0.4473 -0.7744
vn -0.4915 -0.1216 -0.8623
vn -0.1216 -0.8623 -0.4915
vn -0.4473 -0.7744 -0.4473
vn -0.4915 -0.8623 -0.1216
vn -0.8623 -0.4915 -0.1216
vn -0.7744 -0.4473 -0.4473
vn -0.8623 -0.1216 -0.4915
vn 0.1216 0.4915 -0.8623
vn 0.4473 0.4473 -0.7744
vn 0.4915 0.1216 -0.8623
vn 0.1216 0.8623 -0.4915
vn 0.4473 0.7744 -0.4473
vn 0.4915 0.8623 -0.1216
vn 0.8623 0.4915 -0.1216
vn 0.7744 0.4473 -0.4473
vn 0.9831 0.1296 -0.1296
vn 0.8623 0.1216 -0.4915
vn 0.4915 0.1216 0.8623
vn 0.4473 0.4473 0.7744
vn 0.1216 0.4915 0.8623
vn 0.8623 0.1216 0.4915
vn 0.7744 0.4473 0.4473
vn 0.9831 0.1296 0.1296
vn 0.8623 0.4915 0.1216
vn 0.4915 0.8623 0.1216
vn 0.4473 0.7744 0.4473
vn 0.1216 0.8623 0.4915
vn -0.8623 0.1216 0.4915
vn -0.7744 0.4473 0.4473
vn -0.8623 0.4915 0.1216
vn -0.4915 0.1216 0.8623
vn -0.4473 0.4473 0.7744
vn -0.1216 0.4915 0.8623
vn -0.1216 0.8623 0.4915
vn -0.4473 0.7744 0.4473
vn -0.4915 0.8623 0.1216
vn -0.8623 0.4915 -0.1216
vn -0.7744 0.4473 -0.4473
vn -0.8623 0.1216 -0.4915
vn -0.4915 0.8623 -0.1216
vn -0.4473 0.7744 -0.4473
vn -0.1216 0.8623 -0.4915
vn -0.1216 0.4915 -0.8623
vn -0.4473 0.4473 -0.7744
vn -0.4915 0.1216 -0.8623
s 1
f 49//1 3//2 37//3 87//4
f 2//5 15//6 27//7 38//8
f 26//9 73//10 85//11 39//12
f 50//13 86//14 75//15 63//16
f 14//17 61//18 74//19 25//20
f 1//21 4//22 6//23 5//24
f 4//22 8//25 9//26 6//23
f 2//5 7//27 9//26 8//25
f 7//27 11//28 12//29 9//26
f 3//2 10//30 12//29 11//28
f 10//30 5//24 6//23 12//29
f 6//23 9//26 12//29
f 13//31 16//32 18//33 17//34
f 16//32 20//35 21//36 18//33
f 14//17 19//37 21//36 20//35
f 19//37 23//38 24//39 21//36
f 15//6 22//40 24//39 23//38
f 22//40 17//34 18//33 24//39
f 18//33 21//36 24//39
f 25//20 28//41 30//42 29//43
f 28//41 32//44 33//45 30//42
f 26//9 31//46 33//45 32//44
f 31//46 35//47 36//48 33//45
f 27//7 34//49 36//48 35//47
f 34//49 29//43 30//42 36//48
f 30//42 33//45 36//48
f 37//3 40//50 42//51 41//52
f 40//50 44//53 45//54 42//51
f 38//8 43//55 45//54 44//53
f 43//55 47//56 48//57 45//54
f 39//12 46//58 48//57 47//56
f 46//58 41//52 42//51 48//57
f 42//51 45//54 48//57
f 49//1 52//59 54//60 53//61
f 52//59 56//62 57//63 54//60
f 50//13 55//64 57//63 56//62
f 55//64 59//65 60//66 57//63
f 51//67 58//68 60//66 59//65
f 58//68 53//61 54//60 60//66
f 54//60 57//63 60//66
f 61//18 64//69 66//70 65//71
f 64//69 68//72 69//73 66//70
f 62//74 67//75 69//73 68//72
f 67//75 71//76 72//77 69//73
f 63//16 70//78 72//77 71//76
f 70//78 65//71 66//70 72//77
f 66//70 69//73 72//77
f 73//10 76//79 78//80 77//81
f 76//79 80//82 81//83 78//80
f 74//19 79//84 81//83 80//82
f 79//84 83//85 84//86 81//83
f 75//15 82//87 84//86 83//85
f 82//87 77//81 78//80 84//86
f 78//80 81//83 84//86
f 85//11 88//88 90//89 89//90
f 88//88 92//91 93//92 90//89
f 86//14 91//93 93//92 92//91
f 91//93 95//94 96//95 93//92
f 87//4 94//96 96//95 95//94
f 94//96 89//90 90//89 96//95
f 90//89 93//92 96//95
f 1//21 13//31 17//34 4//22
f 4//22 17//34 22//40 8//25
f 8//25 22//40 15//6 2//5
f 2//5 38//8 44//53 7//27
f 7//27 44//53 40//50 11//28
f 11//28 40//50 37//3 3//2
f 3//2 49//1 53//61 10//30
f 10//30 53//61 58//68 5//24
f 5//24 58//68 51//67 1//21
f 14//17 25//20 29//43 19//37
f 19//37 29//43 34//49 23//38
f 23//38 34//49 27//7 15//6
f 13//31 62//74 68//72 16//32
f 16//32 68//72 64//69 20//35
f 20//35 64//69 61//18 14//17
f 26//9 39//12 47//56 31//46
f 31//46 47//56 43//55 35//47
f 35//47 43//55 38//8 27//7
f 25//20 74//19 80//82 28//41
f 28//41 80//82 76//79 32//44
f 32//44 76//79 73//10 26//9
f 39//12 85//11 89//90 46//58
f 46//58 89//90 94//96 41//52
f 41//52 94//96 87//4 37//3
f 50//13 63//16 71//76 55//64
f 55//64 71//76 67//75 59//65
f 59//65 67//75 62//74 51//67
f 49//1 87//4 95//94 52//59
f 52//59 95//94 91//93 56//62
f 56//62 91//93 86//14 50//13
f 63//16 75//15 83//85 70//78
f 70//78 83//85 79//84 65//71
f 65//71 79//84 74//19 61//18
f 75//15 86//14 92//91 82//87
f 82//87 92//91 88//88 77//81
f 77//81 88//88 85//11 73//10
f 1//21 51//67 62//74 13//31
